<?xml version="1.0" encoding="utf-8"?>
<!-- Generator: Adobe Illustrator 16.0.0, SVG Export Plug-In . SVG Version: 6.00 Build 0)  -->
<!DOCTYPE svg PUBLIC "-//W3C//DTD SVG 1.1//EN" "http://www.w3.org/Graphics/SVG/1.1/DTD/svg11.dtd">
<svg version="1.1" id="Layer_1" xmlns="http://www.w3.org/2000/svg" xmlns:xlink="http://www.w3.org/1999/xlink" x="0px" y="0px"
	 width="480px" height="480px" viewBox="0 0 480 480" enable-background="new 0 0 480 480" xml:space="preserve">
<g>
	<g>
		<path fill-rule="evenodd" clip-rule="evenodd" fill="#5F5FAA" d="M385.398,17.105c7.436,2.989,15.604,4.883,22.213,9.186
			c15.268,9.946,22.662,24.93,22.713,43.135c0.143,51.367,0.053,102.722,0.027,154.077c0,0.966-0.221,1.945-0.389,3.259
			c-11.775-2.396-22.92-0.799-34.064,4.239c0-48.584,0-96.55,0-144.8c-114.729,0-229.129,0-344.085,0c0,1.61,0,3.13,0,4.69
			c0,94.875,0,189.789,0,284.68c0,13.656,6.597,20.188,20.318,20.201c54.408,0,108.829,0,163.237,0c1.727,0,3.453,0,5.784,0
			c-3.246,11.117-6.286,21.799-9.624,32.375c-0.309,0.967-2.68,1.83-4.071,1.844c-17.419,0.115-34.832,0.078-52.244,0.078
			c-34.832,0-69.649,0.063-104.487-0.027c-26.399-0.064-46.717-16.064-52.295-40.982c-0.451-2.088-0.876-4.174-1.327-6.275
			c0-106.213,0-212.439,0-318.653c0.296-1.108,0.657-2.203,0.876-3.324c3.955-20.884,16.027-34.708,36.151-41.473
			c2.68-0.915,5.502-1.494,8.246-2.229C170.054,17.105,277.717,17.105,385.398,17.105z"/>
		<path fill-rule="evenodd" clip-rule="evenodd" fill="#5F5FAA" d="M266.121,462.895c-5.836-3.582-6.711-5.695-4.818-12.174
			c5.592-19.172,11.184-38.355,16.904-57.488c0.684-2.254,1.867-4.664,3.518-6.287c27.559-27.609,55.219-55.104,82.867-82.623
			c0.4-0.4,0.863-0.76,0.838-0.721c18.191,17.973,36.307,35.867,54.73,54.086c-0.773,0.811-1.816,1.957-2.898,3.025
			c-26.631,26.504-53.225,53.031-79.971,79.404c-2.33,2.305-5.598,4.16-8.748,5.127c-17.998,5.541-36.086,10.719-54.123,16.053
			c-1.354,0.4-2.635,1.059-3.943,1.598C269.014,462.895,267.564,462.895,266.121,462.895z M292.701,398.232
			c-3.363,11.414-6.615,22.365-9.791,33.33c-0.219,0.746-0.207,1.777,0.143,2.473c2.293,4.613,7.084,6.635,12.02,5.166
			c9.656-2.873,19.326-5.771,29.182-8.723c-1.65-8.373-3.119-16.336-4.846-24.234c-0.23-1.133-1.404-2.666-2.396-2.898
			C309.127,401.529,301.18,399.971,292.701,398.232z"/>
		<path fill-rule="evenodd" clip-rule="evenodd" fill="#5F5FAA" d="M462.895,307.027c-1.662,6.094-5.553,10.654-10.023,14.895
			c-5.566,5.27-10.926,10.783-16.002,15.807c-17.379-17.225-34.734-34.41-51.984-51.496c7.406-7.561,14.531-15.576,22.418-22.738
			c6.17-5.58,16.201-5.219,22.352,0.592c9.799,9.211,19.275,18.836,28.551,28.604c2.242,2.383,3.156,6.055,4.689,9.133
			C462.895,303.563,462.895,305.289,462.895,307.027z"/>
		<path fill-rule="evenodd" clip-rule="evenodd" fill="#5F5FAA" d="M172.393,189.012c0-11.595,0-22.713,0-34.051
			c57.307,0,114.342,0,171.676,0c0,11.39,0,22.585,0,34.051C286.787,189.012,229.764,189.012,172.393,189.012z"/>
		<path fill-rule="evenodd" clip-rule="evenodd" fill="#5F5FAA" d="M172.38,257.85c0-11.568,0-22.688,0-34.038
			c57.294,0,114.343,0,171.688,0c0,11.363,0,22.559,0,34.038C286.813,257.85,229.764,257.85,172.38,257.85z"/>
		<path fill-rule="evenodd" clip-rule="evenodd" fill="#5F5FAA" d="M328.17,292.766c-0.928,1.082-1.572,1.971-2.318,2.73
			c-9.768,9.727-19.494,19.494-29.369,29.092c-1.281,1.25-3.445,2.254-5.199,2.254c-38.574,0.131-77.134,0.09-115.714,0.09
			c-0.973,0-1.952-0.115-3.163-0.205c0-11.363,0-22.482,0-33.961C224.146,292.766,275.914,292.766,328.17,292.766z"/>
		<path fill-rule="evenodd" clip-rule="evenodd" fill="#5F5FAA" d="M137.607,155.102c0,11.313,0,22.405,0,33.833
			c-11.416,0-22.598,0-34.033,0c0-11.247,0-22.353,0-33.833C114.712,155.102,125.921,155.102,137.607,155.102z"/>
		<path fill-rule="evenodd" clip-rule="evenodd" fill="#5F5FAA" d="M103.619,223.683c11.402,0,22.392,0,33.794,0
			c0,11.415,0,22.688,0,34.22c-11.305,0-22.392,0-33.794,0C103.619,246.514,103.619,235.316,103.619,223.683z"/>
		<path fill-rule="evenodd" clip-rule="evenodd" fill="#5F5FAA" d="M103.574,292.623c11.357,0,22.463,0,33.903,0
			c0,11.287,0,22.482,0,34.014c-11.286,0-22.469,0-33.903,0C103.574,315.26,103.574,304.053,103.574,292.623z"/>
	</g>
</g>
</svg>
