<?xml version="1.0" encoding="utf-8"?>
<!-- Generator: Adobe Illustrator 16.0.0, SVG Export Plug-In . SVG Version: 6.00 Build 0)  -->
<!DOCTYPE svg PUBLIC "-//W3C//DTD SVG 1.1//EN" "http://www.w3.org/Graphics/SVG/1.1/DTD/svg11.dtd">
<svg version="1.1" id="Layer_1" xmlns="http://www.w3.org/2000/svg" xmlns:xlink="http://www.w3.org/1999/xlink" x="0px" y="0px"
	 width="480px" height="480px" viewBox="0 0 480 480" enable-background="new 0 0 480 480" xml:space="preserve">
<g>
	<path fill-rule="evenodd" clip-rule="evenodd" fill="#5C5CC0" d="M5.692,241.825c15.618-13.652,31.299-27.239,46.863-40.956
		C115.261,145.683,177.94,90.463,240.629,35.254c1.145-0.999,2.326-1.912,3.723-3.072c7.711,6.971,15.295,13.791,22.856,20.644
		c68.807,62.352,137.613,124.692,206.42,187.033c0.43,0.408,0.967,0.709,1.461,1.042c0,0.312,0,0.612,0,0.924
		c-12.105,12.577-23.157,14.629-38.926,6.434c-5.907-3.051-11.621-6.831-16.584-11.235
		c-57.41-51.245-114.649-102.673-171.92-154.047c-1.031-0.913-2.105-1.762-3.479-2.932c-7.954,6.703-15.859,13.373-23.754,20.053
		c-55.499,46.928-110.976,93.876-166.475,140.771c-2.782,2.363-5.688,4.64-8.754,6.616c-15.972,10.215-26.917,8.851-39.505-4.747
		C5.692,242.427,5.692,242.137,5.692,241.825z"/>
	<path fill-rule="evenodd" clip-rule="evenodd" fill="#5C5CC0" d="M242.869,110.581c15.381,13.662,30.547,27.153,45.713,40.633
		c37.895,33.705,75.768,67.432,113.726,101.04c2.771,2.449,3.889,4.855,3.889,8.572c-0.129,56.68-0.064,113.338-0.15,170.019
		c0,3.147-0.451,6.401-1.311,9.441c-1.139,4.038-4.296,6.165-8.378,6.82c-1.504,0.247-3.04,0.279-4.555,0.279
		c-36.819,0.011-73.64,0.011-110.438,0c-0.924,0-1.825-0.097-3.479-0.183c0-1.783,0-3.545,0-5.284
		c0.043-29.646,0.086-59.28,0.107-88.903c0-11.966-4.49-17.519-16.434-17.884c-17.229-0.526-34.517-0.258-51.756,0.15
		c-7.067,0.172-10.967,4.64-11.729,11.687c-0.183,1.664-0.172,3.351-0.183,5.026c-0.097,30.247-0.182,60.493-0.279,90.739
		c0,1.504,0,3.008,0,5.124c-2.083,0-3.716,0-5.349,0c-36.498,0.043-73.017,0.097-109.504,0.129
		c-10.221,0.011-13.158-2.879-13.158-13.028c-0.021-58.356-0.043-116.701,0.086-175.057c0.011-2.105,0.956-4.952,2.481-6.23
		c56.208-47.313,112.522-94.478,168.826-141.651C241.456,111.623,241.967,111.269,242.869,110.581z"/>
	<path fill-rule="evenodd" clip-rule="evenodd" fill="#5C5CC0" d="M419.343,174.382c-7.282-6.176-14.006-11.869-20.729-17.572
		c-7.455-6.305-14.973-12.535-22.299-18.99c-1.32-1.149-2.643-3.169-2.664-4.813c-0.236-17.229-0.193-34.468-0.215-51.696
		c0-0.43,0.193-0.859,0.365-1.514c15.081,0,30.118,0,45.542,0C419.343,111.064,419.343,142.331,419.343,174.382z"/>
</g>
</svg>
