<?xml version="1.0" encoding="utf-8"?>
<!-- Generator: Adobe Illustrator 16.0.0, SVG Export Plug-In . SVG Version: 6.00 Build 0)  -->
<!DOCTYPE svg PUBLIC "-//W3C//DTD SVG 1.1//EN" "http://www.w3.org/Graphics/SVG/1.1/DTD/svg11.dtd">
<svg version="1.1" id="Layer_1" xmlns="http://www.w3.org/2000/svg" xmlns:xlink="http://www.w3.org/1999/xlink" x="0px" y="0px"
	 width="480px" height="480px" viewBox="0 0 480 480" enable-background="new 0 0 480 480" xml:space="preserve">
<g>
	<g>
		<path fill-rule="evenodd" clip-rule="evenodd" fill="#5F5FAA" d="M303.422,27.257c6.269,6.493,12.705,12.817,18.692,19.548
			c3.45,3.898,7.208,5.146,12.396,5.09c24.315-0.281,48.659-0.112,72.988-0.112c1.726,0,3.408,0,5.413,0c0,16.421,0,32.449,0,48.813
			c-114.356,0-228.74,0-343.412,0c0-16.056,0-32.112,0-48.813c1.662,0,3.316,0,4.999,0c25.479,0,50.973-0.056,76.453,0.042
			c2.973,0.014,5.132-0.729,7.208-2.889c6.085-6.353,12.382-12.466,18.566-18.707c0.883-0.869,1.528-1.977,2.265-2.973
			C220.477,27.257,261.957,27.257,303.422,27.257z"/>
		<path fill-rule="evenodd" clip-rule="evenodd" fill="#5F5FAA" d="M388.751,274.297c0-47.649,0-95.313,0-142.977
			c0-1.711,0-3.394,0-5.385c-98.412,0-196.39,0-295.055,0c0,1.486,0,3.015,0,4.515c0,95.762-0.028,191.51,0,287.272
			c0,27.008,15.383,45.784,41.858,51.295c0.386,0.07,0.743,0.407,1.122,0.617c69.694,0,139.387,0,209.081,0
			c4.368-1.346,8.961-2.201,13.041-4.108c20.074-9.325,29.869-25.409,29.925-47.369
			C388.807,370.213,388.751,322.255,388.751,274.297z M162.128,410.992c0,8.539-6.941,15.48-15.495,15.48
			c-8.554,0-15.467-6.941-15.467-15.48V175.857c0-8.568,6.913-15.496,15.467-15.496c8.554,0,15.495,6.927,15.495,15.496V410.992z
			 M224.88,410.992c0,8.539-6.941,15.48-15.481,15.48s-15.467-6.941-15.467-15.48V175.857c0-8.568,6.927-15.496,15.467-15.496
			s15.481,6.927,15.481,15.496V410.992z M287.646,410.992c0,8.539-6.948,15.48-15.481,15.48c-8.554,0-15.481-6.941-15.481-15.48
			V175.857c0-8.568,6.928-15.496,15.481-15.496c8.533,0,15.481,6.927,15.481,15.496V410.992z M350.412,410.992
			c0,8.539-6.927,15.48-15.48,15.48c-8.555,0-15.481-6.941-15.481-15.48V175.857c0-8.568,6.927-15.496,15.481-15.496
			c8.554,0,15.48,6.927,15.48,15.496V410.992z"/>
	</g>
</g>
</svg>
