<?xml version="1.0" encoding="utf-8"?>
<!-- Generator: Adobe Illustrator 16.0.0, SVG Export Plug-In . SVG Version: 6.00 Build 0)  -->
<!DOCTYPE svg PUBLIC "-//W3C//DTD SVG 1.1//EN" "http://www.w3.org/Graphics/SVG/1.1/DTD/svg11.dtd">
<svg version="1.1" id="Layer_1" xmlns="http://www.w3.org/2000/svg" xmlns:xlink="http://www.w3.org/1999/xlink" x="0px" y="0px"
	 width="971.93px" height="834.77px" viewBox="0 0 971.93 834.77" enable-background="new 0 0 971.93 834.77" xml:space="preserve">
<g>
	<g>
		<path fill-rule="evenodd" clip-rule="evenodd" fill="#E8E8EF" d="M801.683,388.106c57.219,0,106.992,0,166.469,0
			c6.629,138.012-7.766,268.238-103.785,374.223c-81.375,89.809-234.664,97.367-334.055,15.617
			c-52.32-43.039-89.805-104.035-141.773-147.645c-32.82-27.52-87.098-60.012-118.84-49.871
			c-33.168,10.586-58.91,66.855-73.039,108.246c-13.934,40.766-9.246,87.891-13.258,139.094c-57.273,0-111.602,0-185.797,0
			c19.871-97.219,26.551-190.625,58.598-274.332c71.531-186.867,299.789-224.898,438.055-78.781
			c42.953,45.391,78.758,97.871,123.734,140.949c62.766,60.086,129.547,41.59,158.027-41.059
			c9.547-27.719,11.324-58.242,15.313-87.668C795.3,457.61,797.569,428.11,801.683,388.106z"/>
		<path fill-rule="evenodd" clip-rule="evenodd" fill="#E8E8EF" d="M557.933,154.31c-0.742,85.512-67,151.777-152.113,152.113
			c-82.988,0.316-153.941-68.273-155.762-150.59C248.147,69.642,320.726-1.632,408.729,0.028
			C494.495,1.642,558.671,68.017,557.933,154.31z"/>
	</g>
</g>
</svg>
